# xmcd
#
# Track frame offsets:
#	150
#	15034
#	30771
#	46522
#	63436
#
# Disc length: 1044 seconds
#
# Revision: 0
# Processed by: cddbd v1.5.2PL0 Copyright (c) Steve Scherf et al.
# Submitted via: audiograbber 1.83.01
#
DISCID=22041205
DTITLE=’γγελος Δάνος - Ασ' τα να πάνε
DYEAR=1900
DGENRE=
TTITLE0=Μην τρομάζεις
TTITLE1=Σαν σήμερα
TTITLE2=’σ' τα να πάνε
TTITLE3=Να φύγεις τώρα
TTITLE4=Φοβάμαι μη σε χάσω
EXTD=
EXTT0=
EXTT1=
EXTT2=
EXTT3=
EXTT4=
PLAYORDER=
